<?xml version="1.0" encoding="UTF-8" standalone="no"?>
<!-- Created with Inkscape (http://www.inkscape.org/) -->

<svg
   width="400mm"
   height="100mm"
   viewBox="0 0 400 100"
   version="1.1"
   id="svg1"
   inkscape:version="1.3.2 (091e20e, 2023-11-25, custom)"
   sodipodi:docname="stripe-outline.svg"
   xmlns:inkscape="http://www.inkscape.org/namespaces/inkscape"
   xmlns:sodipodi="http://sodipodi.sourceforge.net/DTD/sodipodi-0.dtd"
   xmlns="http://www.w3.org/2000/svg"
   xmlns:svg="http://www.w3.org/2000/svg">
  <sodipodi:namedview
     id="namedview1"
     pagecolor="#ffffff"
     bordercolor="#000000"
     borderopacity="0.25"
     inkscape:showpageshadow="2"
     inkscape:pageopacity="0.0"
     inkscape:pagecheckerboard="0"
     inkscape:deskcolor="#d1d1d1"
     inkscape:document-units="mm"
     inkscape:zoom="0.79375"
     inkscape:cx="752.12598"
     inkscape:cy="561.25984"
     inkscape:window-width="1920"
     inkscape:window-height="1129"
     inkscape:window-x="-8"
     inkscape:window-y="-8"
     inkscape:window-maximized="1"
     inkscape:current-layer="layer1" />
  <defs
     id="defs1" />
  <g
     inkscape:label="Layer 1"
     inkscape:groupmode="layer"
     id="layer1">
    <path
       d="M 372.06654,90.346746 H 27.480891 c -10.672493,0 -19.3225578,-8.425878 -19.3225578,-18.821783 V 27.60744 c 0,-10.395903 8.6500648,-18.8217939 19.3225578,-18.8217939 H 372.06654 c 10.67251,0 19.32255,8.4258909 19.32255,18.8217939 v 43.917523 c 0,10.395905 -8.65004,18.821783 -19.32255,18.821783 z M 388.16866,27.60744 c 0,-8.661162 -7.21053,-15.684829 -16.10212,-15.684829 H 27.480891 c -8.891599,0 -16.102132,7.023667 -16.102132,15.684829 v 43.917523 c 0,8.661155 7.210533,15.684816 16.102132,15.684816 H 372.06654 c 8.89159,0 16.10212,-7.023661 16.10212,-15.684816 z"
       fill="#424770"
       opacity="0.349"
       fill-rule="evenodd"
       id="path1"
       style="stroke-width:3.17843" />
    <path
       d="m 203.63821,66.621882 h -4.20264 l 3.25262,-7.8236 -6.47305,-15.910678 h 4.44096 l 4.0674,10.828798 4.0996,-10.828798 h 4.44099 z m -16.13433,-6.832313 c -1.45562,0 -2.94992,-0.527015 -4.30249,-1.5528 v 1.15754 h -4.33792 V 35.656896 h 4.33792 v 8.353734 c 1.35257,-0.991272 2.84687,-1.518288 4.30249,-1.518288 4.54081,0 7.65817,3.563592 7.65817,8.648606 0,5.081895 -3.11736,8.648621 -7.65817,8.648621 z m -0.91461,-13.667758 c -1.18509,0 -2.37344,0.495637 -3.38788,1.486925 v 7.064441 c 1.01444,0.988155 2.20279,1.48379 3.38788,1.48379 2.44109,0 4.13503,-2.045303 4.13503,-5.016019 0,-2.9707 -1.69394,-5.019137 -4.13503,-5.019137 z m -25.28678,12.114958 c -1.32037,1.025785 -2.81142,1.5528 -4.30249,1.5528 -4.50859,0 -7.65818,-3.566726 -7.65818,-8.648621 0,-5.085014 3.14959,-8.648606 7.65818,-8.648606 1.49107,0 2.98212,0.527016 4.30249,1.518288 v -8.353734 h 4.37334 v 23.737413 h -4.37334 z m 0,-10.628033 c -0.98221,-0.991288 -2.16734,-1.486925 -3.35246,-1.486925 -2.4765,0 -4.17047,2.048437 -4.17047,5.019137 0,2.970716 1.69397,5.016019 4.17047,5.016019 1.18512,0 2.37025,-0.495635 3.35246,-1.48379 z m -25.8246,4.686618 c 0.27051,2.509577 2.30583,4.225496 5.14946,4.225496 1.56189,0 3.28807,-0.561514 5.04963,-1.552802 v 3.535362 c -1.92903,0.856401 -3.8613,1.286159 -5.76134,1.286159 -5.11727,0 -8.70803,-3.632602 -8.70803,-8.78036 0,-4.984639 3.52314,-8.516867 8.36989,-8.516867 4.44095,0 7.45527,3.400475 7.45527,8.250226 0,0.464257 0,0.991273 -0.0676,1.552786 z m 3.93214,-6.537424 c -2.10294,0 -3.72926,1.52142 -3.93214,3.798853 h 7.38765 c -0.13525,-2.246068 -1.52326,-3.798853 -3.45551,-3.798853 z m -15.35499,2.60995 v 11.026429 h -4.33792 V 42.887604 h 4.33792 v 1.650041 c 1.22053,-1.320672 2.7116,-2.045303 4.16723,-2.045303 0.47662,0 0.95003,0.03134 1.42343,0.163119 v 3.764356 c -0.4734,-0.131754 -1.01445,-0.197616 -1.52325,-0.197616 -1.42345,0 -2.94992,0.759144 -4.06741,2.145679 z m -19.35155,3.927474 c 0.27052,2.509577 2.30261,4.225496 5.14946,4.225496 1.55868,0 3.28806,-0.561514 5.04963,-1.552802 v 3.535362 c -1.93224,0.856401 -3.86451,1.286159 -5.76135,1.286159 -5.11725,0 -8.70802,-3.632602 -8.70802,-8.78036 0,-4.984639 3.52314,-8.516867 8.36988,-8.516867 4.43774,0 7.45528,3.400475 7.45528,8.250226 0,0.464257 0,0.991273 -0.0677,1.552786 z m 3.92893,-6.537424 c -2.09973,0 -3.72604,1.52142 -3.92893,3.798853 h 7.38765 c -0.13525,-2.246068 -1.52648,-3.798853 -3.45872,-3.798853 z M 89.55139,59.394309 86.092658,48.170248 82.669341,59.394309 H 78.772634 L 72.943662,42.887604 h 4.337902 l 3.423316,11.22406 3.423317,-11.22406 h 3.928923 l 3.423317,11.22406 3.423294,-11.22406 h 4.337925 l -5.79354,16.506705 z m -26.507326,0.39526 c -5.117257,0 -8.743458,-3.598105 -8.743458,-8.648621 0,-5.085014 3.626201,-8.648606 8.743458,-8.648606 5.117254,0 8.711246,3.563592 8.711246,8.648606 0,5.050516 -3.593992,8.648621 -8.711246,8.648621 z m 0,-13.764999 c -2.540918,0 -4.30249,2.079801 -4.30249,5.116378 0,3.036592 1.761572,5.116393 4.30249,5.116393 2.50871,0 4.270283,-2.079801 4.270283,-5.116393 0,-3.036577 -1.761573,-5.116378 -4.270283,-5.116378 z M 43.99524,51.238205 h -3.896716 v 8.156104 h -4.337916 v -22.71476 h 8.234632 c 4.746909,0 8.134799,3.005212 8.134799,7.296584 0,4.291358 -3.38789,7.262072 -8.134799,7.262072 z M 43.38658,40.114521 h -3.288056 v 7.691846 h 3.288056 c 2.508713,0 4.270285,-1.552802 4.270285,-3.830234 0,-2.308813 -1.761572,-3.861612 -4.270285,-3.861612 z M 365.99925,52.863149 H 348.0969 c 0.40899,4.175301 3.5489,5.404999 7.11393,5.404999 3.62942,0 6.48915,-0.74661 8.98178,-1.970027 v 7.174247 c -2.48296,1.342621 -5.76459,2.308811 -10.1347,2.308811 -8.90769,0 -15.14889,-5.433229 -15.14889,-16.1742 0,-9.0721 5.29439,-16.274576 13.99277,-16.274576 8.68548,0 13.21984,7.199342 13.21984,16.321636 0,0.862668 -0.0805,2.729155 -0.12233,3.20911 z M 352.84381,40.594474 c -2.2865,0 -4.82742,1.681421 -4.82742,5.693589 h 9.45517 c 0,-4.009035 -2.3831,-5.693589 -4.62775,-5.693589 z m -28.73586,25.186705 c -3.20112,0 -5.15591,-1.31439 -6.46984,-2.25235 l -0.0192,10.079069 -9.14279,1.894734 -0.003,-41.577337 h 8.05108 l 0.47662,2.199006 c 1.26241,-1.148123 3.5779,-2.791898 7.16223,-2.791898 6.42153,0 12.46948,5.633993 12.46948,16.0048 0,11.318167 -5.98354,16.443976 -12.52422,16.443976 z m -2.13192,-24.559314 c -2.0965,0 -3.41365,0.74661 -4.36691,1.766113 l 0.0548,13.234865 c 0.88884,0.937945 2.16735,1.690823 4.31215,1.690823 3.38144,0 5.64863,-3.585556 5.64863,-8.38198 0,-4.658389 -2.30261,-8.309821 -5.64863,-8.309821 z m -26.71989,-7.29657 h 9.17821 v 31.219079 h -9.17821 z m 0,-9.969282 9.17821,-1.901002 v 7.255802 l -9.17821,1.901008 z m -9.78688,20.023253 v 21.165108 h -9.13958 V 33.925295 h 7.90617 l 0.57324,2.631914 c 2.14156,-3.83338 6.41508,-3.055406 7.63241,-2.628781 v 8.187483 c -1.16258,-0.367031 -4.81133,-0.900313 -6.97224,1.863355 z m -19.59951,10.213957 c 0,5.248146 5.77101,3.613786 6.94002,3.158929 v 7.249524 c -1.21732,0.652488 -3.42654,1.179503 -6.4151,1.179503 -5.42642,0 -9.50027,-3.892977 -9.50027,-9.166222 l 0.0419,-28.574615 8.92701,-1.850809 0.007,7.735762 h 6.94324 v 7.594591 h -6.94324 z m -11.39709,1.518287 c 0,6.411969 -5.23964,10.069669 -12.84307,10.069669 -3.15279,0 -6.59865,-0.596025 -9.99943,-2.020206 v -8.504319 c 3.06907,1.624944 6.97869,2.845227 10.00911,2.845227 2.03852,0 3.50704,-0.533282 3.50704,-2.180191 0,-4.250593 -13.89937,-2.650731 -13.89937,-12.51022 0,-6.305296 4.94335,-10.079067 12.35999,-10.079067 3.03042,0 6.05764,0.451723 9.08805,1.628077 v 8.391396 c -2.78245,-1.464975 -6.31526,-2.29313 -9.09449,-2.29313 -1.91616,0 -3.1077,0.539564 -3.1077,1.929232 0,4.00905 13.97987,2.101767 13.97987,12.723532 z"
       fill="#424770"
       opacity="0.502"
       fill-rule="evenodd"
       id="path2"
       style="stroke-width:3.17843" />
  </g>
</svg>
