<?xml version="1.0" encoding="UTF-8" standalone="no"?>
<svg
   version="1.0"
   width="145.000000pt"
   height="145.000000pt"
   viewBox="0 0 145.000000 145.000000"
   preserveAspectRatio="xMidYMid meet"
   id="svg3"
   sodipodi:docname="logo-short.svg"
   inkscape:version="1.3.2 (091e20e, 2023-11-25, custom)"
   xmlns:inkscape="http://www.inkscape.org/namespaces/inkscape"
   xmlns:sodipodi="http://sodipodi.sourceforge.net/DTD/sodipodi-0.dtd"
   xmlns="http://www.w3.org/2000/svg"
   xmlns:svg="http://www.w3.org/2000/svg">
  <defs
     id="defs3" />
  <sodipodi:namedview
     id="namedview3"
     pagecolor="#ffffff"
     bordercolor="#000000"
     borderopacity="0.25"
     inkscape:showpageshadow="2"
     inkscape:pageopacity="0.0"
     inkscape:pagecheckerboard="0"
     inkscape:deskcolor="#d1d1d1"
     inkscape:document-units="pt"
     inkscape:zoom="4.6086207"
     inkscape:cx="96.558174"
     inkscape:cy="96.666667"
     inkscape:window-width="1920"
     inkscape:window-height="1129"
     inkscape:window-x="-8"
     inkscape:window-y="-8"
     inkscape:window-maximized="1"
     inkscape:current-layer="svg3" />
  <path
     fill="#c61e53"
     opacity="1"
     stroke="none"
     d="m 87.068266,100.36427 c -11.187742,2.27318 -22.215096,4.45627 -33.733397,6.73653 15.073026,-24.330701 29.932659,-48.316958 45.127708,-72.844646 14.579533,24.329904 28.973243,48.349677 43.608103,72.771956 -2.80411,-0.50864 -5.24024,-0.9079 -7.65822,-1.39672 -8.80822,-1.78075 -17.61209,-3.58342 -26.41392,-5.39595 -2.48366,-0.511462 -4.96702,-1.034522 -7.42781,-1.643892 -2.499769,-0.61902 -4.861165,0.13233 -7.260767,0.56072 -2.029181,0.36225 -4.054364,0.74708 -6.241697,1.212002 z"
     id="path2"
     style="stroke-width:0.422274" />
  <path
     fill="#c61e53"
     opacity="1"
     stroke="none"
     d="m 59.579421,38.718545 c 1.858628,-2.901289 3.625496,-5.675215 5.590969,-8.760942 1.134766,1.748288 2.169275,3.299943 3.161416,4.878234 3.650117,5.806651 7.329701,11.595934 10.867056,17.470699 0.398318,0.661521 0.28902,2.019263 -0.133251,2.726935 -9.451381,15.839178 -18.979713,31.632447 -28.49429,47.433909 -0.07173,0.11918 -0.181943,0.22152 -0.228852,0.34848 -1.376667,3.72628 -4.120821,4.35328 -7.853773,4.27695 -12.160421,-0.24876 -24.329127,-0.0915 -36.4946327,-0.0973 -0.7327564,-3.5e-4 -1.4654647,-0.0605 -2.3363748,-0.52378 2.8211234,-1.85438 5.6341093,-3.7213 8.4652495,-5.56029 4.372657,-2.840292 8.983319,-5.377542 13.046279,-8.605632 2.164026,-1.719353 3.472899,-4.566655 5.022945,-6.997203 4.166555,-6.533328 8.24436,-13.123185 12.377481,-19.677947 5.340756,-8.469986 10.701181,-16.927587 16.052347,-25.391022 0.292255,-0.46223 0.577297,-0.929041 0.957431,-1.521075 z"
     id="path3"
     style="stroke-width:0.422274" />
  <path
     fill="#c61e53"
     opacity="1"
     stroke="none"
     d="M 39.502207,63.354594 C 34.564183,70.89832 29.747815,78.333585 24.82667,85.698834 24.048403,86.863628 22.900881,87.857525 21.746736,88.682243 16.716255,92.276868 11.626659,95.789078 6.5399924,99.304398 5.9020149,99.745298 5.1539542,100.02695 4.456901,100.38236 4.2500562,100.19317 4.0432196,100.00397 3.8363818,99.814768 13.980612,83.611621 24.124854,67.408492 34.45,50.916387 c 0.760424,0.942836 1.408295,1.624939 1.915181,2.399325 1.12641,1.720831 2.037388,3.602568 3.306223,5.204856 1.354027,1.709882 1.225281,3.157205 -0.169197,4.834026 z"
     id="path14"
     style="stroke-width:0.422274" />
</svg>
