<?xml version="1.0" encoding="UTF-8" standalone="no"?>
<svg
   version="1.1"
   id="Layer_1"
   x="0px"
   y="0px"
   width="599.99884"
   viewBox="0 0 599.99884 86.741995"
   enable-background="new 0 0 1501 217"
   xml:space="preserve"
   sodipodi:docname="logo.svg"
   height="86.741997"
   inkscape:version="1.3.2 (091e20e, 2023-11-25, custom)"
   xmlns:inkscape="http://www.inkscape.org/namespaces/inkscape"
   xmlns:sodipodi="http://sodipodi.sourceforge.net/DTD/sodipodi-0.dtd"
   xmlns="http://www.w3.org/2000/svg"
   xmlns:svg="http://www.w3.org/2000/svg"><defs
   id="defs22" /><sodipodi:namedview
   id="namedview22"
   pagecolor="#ffffff"
   bordercolor="#000000"
   borderopacity="0.25"
   inkscape:showpageshadow="2"
   inkscape:pageopacity="0.0"
   inkscape:pagecheckerboard="0"
   inkscape:deskcolor="#d1d1d1"
   inkscape:zoom="0.87008661"
   inkscape:cx="750.5"
   inkscape:cy="108.60988"
   inkscape:window-width="1920"
   inkscape:window-height="1129"
   inkscape:window-x="-8"
   inkscape:window-y="-8"
   inkscape:window-maximized="1"
   inkscape:current-layer="Layer_1" />
<path
   fill="#ffffff"
   opacity="1"
   stroke="none"
   d="m 434.58802,89.277182 c -141.86128,0 -283.5324,0 -425.2034843,0 -2.8e-5,-27.510144 -2.8e-5,-55.020279 -5.6e-5,-82.5304506 C 199.67367,6.746694 389.96293,6.746694 580.25229,6.7466566 c 10e-5,27.5100314 10e-5,55.0201104 1.9e-4,82.5303474 -48.49137,1.78e-4 -96.98284,1.78e-4 -145.66446,1.78e-4 M 85.358075,71.04943 c 1.82558,-0.337593 3.64958,-0.68419 5.47718,-1.010453 2.16122,-0.385825 4.28803,-1.062545 6.53947,-0.505016 2.21634,0.548835 4.453005,1.019933 6.689925,1.480579 7.92744,1.632481 15.85673,3.256062 23.78994,4.859907 2.17777,0.440274 4.37189,0.799866 6.89744,1.257978 C 121.57101,55.136284 108.6072,33.502661 95.476005,11.589717 81.790445,33.680797 68.406985,55.284232 54.831331,77.197896 65.205391,75.144157 75.137275,73.177943 85.358075,71.04943 M 60.372914,15.723513 c -0.259744,0.418519 -0.516469,0.838954 -0.779691,1.255266 -4.819575,7.622668 -9.64749,15.240082 -14.457689,22.868649 -3.722532,5.903605 -7.395243,11.83882 -11.147889,17.723119 -1.396062,2.189095 -2.57491,4.753544 -4.523959,6.302089 -3.659342,2.907409 -7.811976,5.192612 -11.750247,7.750741 -2.549892,1.656302 -5.083433,3.337754 -7.624303,5.00793 0.784393,0.41736 1.444313,0.471425 2.10427,0.471743 10.956972,0.0056 21.916824,-0.136402 32.869215,0.0876 3.362118,0.06872 5.833665,-0.495956 7.073571,-3.852063 0.04226,-0.114348 0.141479,-0.20652 0.206118,-0.313865 8.569389,-14.231723 17.151165,-28.45607 25.663635,-42.721768 0.38033,-0.63737 0.47877,-1.860233 0.12002,-2.456037 -3.18595,-5.29116 -6.5,-10.50533 -9.78751,-15.735141 -0.89358,-1.421501 -1.825321,-2.8190129 -2.847357,-4.3936241 -1.770221,2.7791871 -3.361566,5.2775471 -5.118184,8.0053231 M 179.38982,49.533166 c 0,-3.739398 -0.0299,-7.479161 0.0178,-11.217941 0.0149,-1.1735 0.13472,-2.36667 0.38405,-3.512217 0.7181,-3.300348 3.8232,-5.845164 7.18745,-5.997366 4.74585,-0.21472 7.60646,1.443967 8.74396,5.30795 0.46708,1.586232 0.73446,3.288831 0.74802,4.941328 0.072,8.745963 0.0327,17.492815 0.0337,26.239368 2.8e-4,2.254023 0.68603,3.008294 2.77554,3.064883 1.98882,0.05385 3.30778,-1.025411 3.29114,-2.941065 -0.0888,-10.302886 -0.1507,-20.607445 -0.41379,-30.906526 -0.0795,-3.093155 -1.75574,-5.748748 -4.0944,-7.685157 -4.72809,-3.914907 -13.04415,-4.627163 -18.13068,-0.622654 -1.38047,1.086843 -2.58575,2.396269 -3.40398,3.164544 -1.32934,-1.083272 -2.5765,-2.243674 -3.96371,-3.201211 -3.30151,-2.278958 -6.91174,-2.894255 -10.93332,-2.363286 -6.53301,0.862542 -11.15825,5.321347 -11.41816,11.732792 -0.40789,10.061017 -0.11592,20.150708 -0.10087,30.228244 0,1.638044 0.86291,2.51431 2.53162,2.599218 2.36942,0.120556 3.54057,-0.99325 3.54263,-3.470463 0.009,-9.19022 -0.0131,-18.380478 0.009,-27.570642 0.0159,-6.926717 6.79544,-10.86021 12.80499,-7.380117 3.09781,1.793883 4.25512,4.807637 4.2813,8.210405 0.0692,8.93616 0.0224,17.873208 0.0243,26.809901 7.5e-4,2.651769 0.68257,3.402085 3.06835,3.396083 1.9561,-0.0047 3.00805,-1.181017 3.01282,-3.424504 0.0103,-5.007061 0,-10.01416 0,-15.401567 m 275.73577,15.131511 c 0,2.776401 0.5702,3.586859 2.5808,3.694364 2.28603,0.122219 3.49598,-0.995345 3.49925,-3.316616 0.0122,-8.937152 -0.009,-17.874378 0.0224,-26.811435 0,-1.172537 0.0958,-2.382208 0.39247,-3.510122 1.77127,-6.735183 10.06825,-7.225297 13.75084,-4.127131 2.6382,2.21947 2.85996,5.344309 2.90568,8.35711 0.13556,8.935113 0.0804,17.873816 0.0206,26.810584 -0.0112,1.721315 0.89143,2.384442 2.32276,2.579211 2.44365,0.332507 3.78346,-0.890458 3.78608,-3.39053 0.0103,-9.254083 0.0739,-18.508961 -0.029,-27.761904 -0.043,-3.899939 -1.28026,-7.524344 -4.27933,-10.167643 -4.56327,-4.021888 -12.64981,-4.779365 -17.81215,-1.208362 -1.61206,1.115143 -2.93953,2.641831 -4.24082,3.836488 -1.20434,-1.133365 -2.36278,-2.472717 -3.75803,-3.485918 -3.20316,-2.326189 -6.77608,-2.845556 -10.73624,-2.365427 -6.84424,0.829802 -11.35337,5.716616 -11.54531,12.020285 -0.30076,9.878776 -0.0869,19.773446 -0.0739,29.661365 0,2.058919 0.79981,2.836618 2.81874,2.880222 2.13896,0.04618 3.25402,-1.082234 3.25655,-3.370429 0.0103,-9.254083 -0.0178,-18.508251 0.0122,-27.76224 0.0215,-6.636729 6.51403,-10.598129 12.41514,-7.531562 3.32508,1.727888 4.61581,4.836479 4.65769,8.366383 0.10405,8.745777 0.0346,17.493629 0.0346,26.603307 M 558.4092,60.345873 c 1.77099,-3.865507 2.12597,-7.878523 1.31121,-12.032457 -0.67771,-3.454888 -2.17066,-6.361979 -5.07485,-8.523737 -2.63614,-1.962212 -5.55921,-2.709078 -8.78593,-3.070437 -4.45454,-0.498864 -8.46911,0.365585 -12.15085,2.808477 -1.00352,0.66581 -1.8023,1.640129 -2.89979,2.663811 0,-1.207624 -0.0561,-2.088518 0.0131,-2.959521 0.10181,-1.284585 -0.60479,-1.954695 -1.64964,-2.432795 -2.15018,-0.983836 -4.50324,0.732113 -4.48753,3.396998 0.0823,14.064563 0.0327,28.129873 0.0552,42.194875 0,0.727429 0.14079,1.490488 0.38826,2.174604 0.61919,1.711209 2.11681,1.845181 3.57853,1.62661 1.34299,-0.200827 2.13794,-0.943243 2.14084,-2.559401 0.009,-3.901725 0.24662,-7.802394 0.33039,-11.704829 0.058,-2.683135 0.0112,-5.368514 0.0112,-8.413091 1.00455,0.77696 1.66329,1.308107 2.34399,1.809458 4.6848,3.450616 9.97813,3.721167 15.34466,2.500455 4.11507,-0.936063 7.49605,-3.205101 9.53115,-7.47902 M 363.1964,67.977086 c 2.11129,-0.888467 4.22258,-1.776943 6.30106,-2.651601 0.37704,2.342961 1.35299,3.191405 3.6535,3.033144 1.91618,-0.131803 2.48479,-0.952835 2.48516,-3.594946 7.5e-4,-5.573173 -0.14219,-11.151095 0.0439,-16.718051 0.15707,-4.69759 -3.21971,-9.222203 -7.73763,-10.558049 -3.668,-1.084525 -7.39817,-1.334565 -11.037,-0.592785 -2.83724,0.578378 -5.55463,1.905987 -8.21107,3.145491 -1.45171,0.677394 -1.6717,2.266552 -0.94154,3.584887 0.86413,1.560185 2.37316,1.521658 3.75308,0.668745 3.47905,-2.150473 7.25522,-2.765584 11.27858,-2.578425 5.11644,0.238007 7.69304,4.13359 6.47626,8.64978 -6.22262,-3.181812 -12.48386,-3.542077 -18.8469,-0.367791 -5.51995,2.753711 -6.00741,9.746553 -3.23972,13.591174 3.66959,5.097607 10.40781,5.371954 16.02228,4.388427 M 505.46639,36.412435 c -1.23902,0.126614 -2.47543,0.29844 -3.71764,0.371025 -3.22383,0.188393 -6.15166,1.335239 -8.91907,2.864759 -1.54446,0.853632 -2.07203,2.859813 -1.33177,4.027937 0.83141,1.311931 2.11709,1.582137 3.95754,0.48902 3.52225,-2.092014 7.31169,-2.678395 11.31719,-2.434058 5.05932,0.308611 7.47558,4.325956 6.233,8.597781 -6.30415,-3.165545 -12.61072,-3.482112 -19.02809,-0.248619 -5.63569,2.839544 -5.70038,11.126218 -2.16514,14.545598 4.17491,4.038128 9.17458,4.215554 14.30496,3.428216 2.47076,-0.379188 4.79325,-1.724569 7.12854,-2.611793 0.415,2.262887 1.40609,3.115126 3.7441,2.915889 1.8541,-0.158008 2.40897,-1.002301 2.40915,-3.670094 2.8e-4,-5.572584 -0.10387,-11.147664 0.0299,-16.717032 0.12855,-5.348422 -3.6665,-9.615863 -8.66506,-10.776527 -1.62271,-0.376775 -3.29834,-0.52564 -5.29763,-0.782102 M 234.69776,66.097089 c 1.5913,-1.384928 3.49121,-2.543171 4.70958,-4.202016 2.52882,-3.443342 3.40239,-7.370814 2.7862,-11.729829 -0.78691,-5.567255 -3.62958,-9.443878 -8.6143,-11.846972 -4.12591,-1.989109 -8.54249,-2.142087 -12.90839,-1.44838 -3.75121,0.596057 -7.17566,2.217581 -9.71505,5.253558 -3.21681,3.846014 -4.23848,8.224072 -3.45222,13.170309 0.86647,5.450944 3.89808,9.347835 8.76013,11.446403 6.01414,2.595843 12.21573,2.311791 18.43405,-0.643073 M 246.70594,43.07549 c 0,4.370084 -0.0449,8.740896 0.0281,13.109792 0.0215,1.285446 0.22596,2.609474 0.5959,3.840947 2.74357,9.133332 13.69821,10.133229 20.06723,6.409117 1.38871,-0.812001 2.53668,-2.035565 4.03103,-3.26299 0,1.155905 -0.014,1.913691 0,2.670738 0.0365,1.573059 0.87703,2.387706 2.42121,2.514834 2.37577,0.195591 3.6521,-0.948067 3.65566,-3.345037 0.0122,-8.296827 0.009,-16.593691 3.7e-4,-24.890527 -2.8e-4,-0.439432 0,-0.895338 -0.1062,-1.315287 -0.40398,-1.565205 -1.83597,-2.588597 -3.26001,-2.37959 -1.79595,0.263577 -2.71103,1.315577 -2.71318,3.146697 -0.009,4.053413 0,8.106845 0,12.160258 -0.009,5.533187 -3.08519,10.695068 -9.1614,11.408147 -5.73629,0.673168 -9.4343,-2.877632 -9.46571,-7.671535 -0.0346,-5.31988 0,-10.640199 -0.0122,-15.960275 -0.009,-2.243983 -1.32588,-3.024057 -3.01731,-3.027077 -1.82203,-0.0028 -3.02563,0.882633 -3.06022,2.985371 -0.0178,1.076401 0,2.153334 0,3.606417 M 420.1375,53.722747 c 0,3.988858 -0.009,7.977726 0,11.966565 0,1.858176 0.8416,2.648001 2.78302,2.669841 2.09147,0.02356 2.91474,-0.734161 2.9168,-2.726431 0.009,-6.014942 0.009,-12.029913 3.8e-4,-18.044856 0,-2.93124 -1.15611,-5.432741 -3.07126,-7.562423 -1.96572,-2.18571 -4.51838,-3.008219 -7.43986,-3.303144 -3.83628,-0.387255 -7.35273,0.130737 -10.58357,2.284819 -1.14825,0.765537 -2.31305,1.506036 -3.62453,2.358191 0,-0.659369 0,-1.03836 -2.8e-4,-1.417341 -0.0103,-2.198435 -1.15031,-3.579651 -2.90998,-3.52539 -1.8957,0.05843 -2.79415,1.19447 -2.79433,3.539292 0,8.420944 0,16.841888 0,25.262814 0,2.456084 1.36972,3.630715 3.69913,3.110526 1.85064,-0.413274 2.37578,-1.827138 2.38026,-3.523548 0.0103,-3.988839 0.0954,-7.980333 -0.0178,-11.965975 -0.17249,-6.062324 3.06013,-9.756604 8.50294,-10.942444 2.92055,-0.636305 6.8621,-0.317858 8.67058,2.731049 1.60981,2.714024 1.47677,5.724346 1.48378,9.088455 m -112.59479,-7.8293 c 0.25879,1.901341 0.69669,3.79854 0.74073,5.704854 0.10845,4.684183 0.0308,9.372583 0.0383,14.059262 0,1.882353 0.81907,2.670542 2.75282,2.701571 2.06997,0.03319 2.94485,-0.754177 2.9471,-2.697355 0.009,-6.143361 0.10975,-12.289349 -0.0393,-18.42912 -0.0851,-3.512441 -1.67039,-6.423066 -4.56251,-8.549905 -4.22249,-3.10515 -12.54603,-2.817107 -17.13837,0.650216 -0.90985,0.687023 -1.81521,1.38002 -2.97879,2.265055 0,-0.864187 0,-1.357582 -3.7e-4,-1.85094 -0.015,-2.020307 -1.21874,-3.388136 -2.92185,-3.323656 -1.85308,0.07021 -2.78134,1.187318 -2.78181,3.362277 0,8.486733 -0.009,16.973467 0,25.460182 0,2.506438 1.81278,3.841648 4.08702,2.99642 1.58794,-0.590167 1.98378,-1.941569 1.98985,-3.454934 0.0159,-4.053292 0.0514,-8.10735 -0.009,-12.159884 -0.0682,-4.801794 1.91964,-8.261768 6.42204,-10.112652 3.30292,-1.357788 9.31603,-1.549322 11.44957,3.378609 m 12.2463,-8.709287 c -1.74771,0.449436 -2.32669,1.696531 -1.91309,3.286774 0.36975,1.422044 1.55353,1.791069 2.96345,1.66308 0.9824,-0.08919 1.97957,-0.0172 3.07284,-0.0172 0,5.859235 0.12248,11.491055 -0.0411,17.114572 -0.11855,4.081414 2.24133,8.060511 6.93848,8.974912 3.8244,0.74451 9.21281,-0.3869 11.37132,-3.845061 1.09636,-1.756412 1.05139,-2.618542 -0.45885,-3.863824 -1.34421,-1.10844 -2.36007,-0.289773 -3.47532,0.522406 -1.07925,0.78587 -2.2376,1.547666 -3.47672,2.011575 -2.55499,0.956583 -4.76146,-0.677338 -4.76866,-3.404908 -0.014,-5.384641 -0.009,-10.769356 0,-16.154025 7.5e-4,-0.420248 0.0729,-0.840403 0.12032,-1.355656 2.57351,0 5.03595,0.02739 7.4969,-0.02001 0.58572,-0.01131 1.50286,-0.09984 1.68441,-0.452858 0.47643,-0.925909 1.0126,-2.1139 0.7857,-3.010285 -0.16286,-0.643092 -1.49248,-1.334023 -2.34502,-1.394857 -2.55397,-0.18225 -5.12925,-0.06554 -7.74764,-0.06554 0,-3.449447 0.0252,-6.614487 -0.009,-9.778882 -0.0243,-2.292401 -0.95902,-3.181971 -3.17605,-3.152737 -2.17907,0.0287 -2.89352,0.804662 -2.89876,3.181943 -0.009,3.209018 0,6.418064 0,9.75048 -1.40441,0 -2.59669,0 -4.1232,0.01019 M 42.440208,37.679042 c 1.17753,-1.391744 1.293486,-2.695289 0.07395,-4.235308 -1.142788,-1.443117 -1.963269,-3.137919 -2.977779,-4.687801 -0.456532,-0.697457 -1.040042,-1.3118 -1.724924,-2.160973 -9.299436,14.853761 -18.435936,29.447254 -27.572427,44.040757 0.186288,0.170405 0.372577,0.340809 0.558875,0.511214 0.627807,-0.320111 1.301554,-0.573778 1.876155,-0.970878 4.581353,-3.166106 9.165342,-6.329407 13.696089,-9.566939 1.03949,-0.74279 2.073017,-1.637951 2.77397,-2.687034 4.432273,-6.633577 8.770177,-13.330214 13.296072,-20.243038 M 388.17727,51.43488 c 0,-4.051852 0.0131,-8.103759 -0.009,-12.155527 -0.009,-1.921572 -1.66618,-3.033798 -3.51467,-2.650198 -2.26097,0.46919 -2.53247,2.142228 -2.54378,3.900537 -0.0495,7.596912 -0.0346,15.194356 0,22.791454 0,0.980976 0.16968,1.97445 0.37228,2.938663 0.3791,1.8044 1.39655,2.426223 3.487,2.080702 1.44227,-0.238382 2.27733,-0.961296 2.24218,-2.661062 -0.0957,-4.619656 -0.0327,-9.242603 -0.0327,-14.244569 M 575.00945,31.090068 c 1.67488,0.401167 1.7191,1.812235 1.78566,3.088986 0.0953,1.823781 0.0243,3.656229 0.0243,5.508122 1.26483,0.319644 1.93535,0.0574 1.90889,-1.282762 -0.0327,-1.646233 0.0767,-3.298918 -0.0271,-4.939252 -0.17577,-2.781291 -2.39869,-4.951893 -4.57813,-4.17496 -1.85345,0.660705 -3.43446,0.46288 -5.18731,-0.04618 -1.71013,-0.496612 -4.39872,1.001365 -4.61291,2.609745 -0.27991,2.103158 -0.38247,4.241085 -0.37602,6.363484 0,0.538065 0.70576,1.073979 1.08711,1.610903 0.37835,-0.539859 1.03129,-1.054767 1.08308,-1.6243 0.14837,-1.633435 0.0505,-3.289009 0.0552,-4.935859 0,-1.4425 0.72539,-2.276751 2.17281,-2.151072 1.25333,0.108822 2.02977,0.848845 2.01388,2.22994 -0.0187,1.646645 0.0318,3.294693 -0.015,4.940234 -0.0393,1.394231 0.5744,1.754028 1.91244,1.386742 0,-2.033386 -0.0542,-3.993177 0.0178,-5.948256 0.0561,-1.50223 0.56384,-2.727767 2.73599,-2.635529 m -187.92816,-0.02048 c 2.0264,-1.094575 2.97168,-3.334098 2.16944,-5.139855 -0.76251,-1.716295 -3.78533,-2.65807 -5.7304,-1.785366 -1.9574,0.878258 -2.75787,2.918534 -2.07688,4.977434 0.48792,1.475343 3.54347,3.029152 5.63784,1.947787 M 554.7492,29.568279 c -0.438,0.333517 -0.8761,0.667025 -1.314,1.000533 0.0879,0.147116 0.17669,0.294242 0.26513,0.441358 1.22286,0.05628 2.44571,0.112591 3.72344,0.171396 0,0.74983 0,1.313932 0,1.878034 0,1.514356 -0.11808,3.041857 0.0486,4.537627 0.086,0.772716 0.6778,1.489105 1.04101,2.230932 0.39743,-0.707685 0.87535,-1.38462 1.16143,-2.134758 0.1681,-0.440723 0.0308,-0.997869 0.0308,-1.502651 0,-1.677264 0,-3.354517 0,-5.186329 1.42143,0 2.58735,0 3.75327,0 0.072,-0.211653 0.14322,-0.423296 0.21484,-0.63494 -0.58637,-0.267709 -1.16442,-0.742397 -1.76052,-0.766349 -2.26789,-0.09115 -4.54157,-0.03674 -7.16407,-0.03487 z"
   id="path1"
   style="stroke-width:0.380325" />
<path
   fill="#c61e53"
   opacity="1"
   stroke="none"
   d="M 85.213615,71.13058 C 75.137275,73.177943 65.205391,75.144157 54.831331,77.197896 68.406985,55.284232 81.790445,33.680797 95.476005,11.589717 108.6072,33.502661 121.57101,55.136284 134.75203,77.132425 c -2.52555,-0.458112 -4.71967,-0.817704 -6.89744,-1.257978 -7.93321,-1.603845 -15.8625,-3.227426 -23.78994,-4.859907 -2.23692,-0.460646 -4.473585,-0.931744 -6.689925,-1.480579 -2.25144,-0.557529 -4.37825,0.119191 -6.53947,0.505016 -1.8276,0.326263 -3.6516,0.67286 -5.62164,1.091603 z"
   id="path2"
   style="stroke-width:0.380325" />
<path
   fill="#c61e53"
   opacity="1"
   stroke="none"
   d="m 60.455541,15.60881 c 1.673991,-2.613073 3.265336,-5.111434 5.035557,-7.8906207 1.022036,1.5746108 1.953777,2.9721227 2.847357,4.3936247 3.28751,5.229811 6.60156,10.443981 9.78751,15.73514 0.35875,0.595805 0.26031,1.818668 -0.12002,2.456038 -8.51247,14.265697 -17.094246,28.490044 -25.663635,42.721767 -0.0646,0.107346 -0.163869,0.199518 -0.206118,0.313866 -1.239906,3.356106 -3.711453,3.920825 -7.073571,3.852063 -10.952391,-0.22404 -21.912243,-0.08237 -32.869215,-0.0876 -0.659957,-3.17e-4 -1.319877,-0.05441 -2.10427,-0.471742 2.54087,-1.670177 5.074411,-3.351628 7.624303,-5.007931 3.938271,-2.558129 8.090905,-4.843332 11.750247,-7.75074 1.949049,-1.548546 3.127897,-4.112995 4.523959,-6.302089 3.752646,-5.8843 7.425357,-11.819514 11.147889,-17.723119 4.810199,-7.628568 9.638114,-15.245981 14.457689,-22.868649 0.263222,-0.416313 0.519947,-0.836748 0.862318,-1.36997 z"
   id="path3"
   style="stroke-width:0.380325" />
<path
   fill="#c61e53"
   opacity="1"
   stroke="none"
   d="m 179.38982,49.723362 c 0,5.197249 0.009,10.204347 0,15.211409 -0.009,2.243487 -1.05672,3.419586 -3.01282,3.424503 -2.38578,0.0056 -3.06779,-0.744314 -3.06835,-3.396082 0,-8.936693 0.0449,-17.873742 -0.0243,-26.809902 -0.0262,-3.402767 -1.18358,-6.416521 -4.28129,-8.210404 -6.00965,-3.480093 -12.78938,0.4534 -12.805,7.380116 -0.0206,9.190164 -3.7e-4,18.380422 -0.009,27.570642 0,2.477213 -1.17311,3.591019 -3.54253,3.470464 -1.6688,-0.08489 -2.5292,-0.961174 -2.53163,-2.599218 -0.0149,-10.077537 -0.30702,-20.167227 0.10079,-30.228244 0.2599,-6.411445 4.88524,-10.870251 11.41816,-11.732793 4.02167,-0.530969 7.6318,0.08433 10.93341,2.363286 1.38712,0.957537 2.63428,2.117939 3.96361,3.201211 0.81823,-0.768275 2.02351,-2.0777 3.40408,-3.164544 5.08644,-4.004508 13.40249,-3.292252 18.13058,0.622655 2.33866,1.936409 4.01541,4.592001 4.0945,7.685157 0.26308,10.29908 0.32441,20.60364 0.4137,30.906526 0.0168,1.915654 -1.30223,2.994934 -3.29114,2.941065 -2.08951,-0.05656 -2.77526,-0.81086 -2.77554,-3.064884 0,-8.746553 0.0374,-17.493404 -0.0337,-26.239368 -0.0131,-1.652497 -0.28103,-3.355096 -0.74802,-4.941328 -1.13759,-3.863983 -3.9982,-5.522669 -8.74396,-5.30795 -3.36425,0.152202 -6.46944,2.697018 -7.18754,5.997367 -0.24924,1.145546 -0.3691,2.338716 -0.38396,3.512216 -0.0467,3.738781 -0.0178,7.478543 -0.0178,11.4081 z"
   id="path4"
   style="stroke-width:0.380325" />
<path
   fill="#c61e53"
   opacity="1"
   stroke="none"
   d="m 455.1256,64.48339 c 0,-8.928354 0.0701,-17.676206 -0.0346,-26.421982 -0.0421,-3.529905 -1.3327,-6.638496 -4.65778,-8.366384 -5.90111,-3.066566 -12.39354,0.894834 -12.41514,7.531562 -0.0299,9.25399 0,18.508157 -0.0121,27.762241 0,2.288194 -1.11759,3.416603 -3.25646,3.370429 -2.01901,-0.04357 -2.81611,-0.821304 -2.81882,-2.880222 -0.0131,-9.88792 -0.22681,-19.78259 0.0738,-29.661366 0.19194,-6.303669 4.70107,-11.190483 11.54531,-12.020284 3.96016,-0.480129 7.53308,0.03927 10.73634,2.365426 1.39515,1.013202 2.55359,2.352553 3.75793,3.485918 1.30129,-1.194657 2.62876,-2.721344 4.24082,-3.836488 5.16235,-3.571003 13.24888,-2.813525 17.81215,1.208363 2.99907,2.643298 4.23595,6.267703 4.27933,10.167643 0.10303,9.252942 0.0393,18.50782 0.029,27.761904 0,2.500071 -1.34252,3.723037 -3.78617,3.390529 -1.43134,-0.194768 -2.33417,-0.857895 -2.32277,-2.579211 0.0589,-8.936768 0.11472,-17.875471 -0.0206,-26.810584 -0.0458,-3.0128 -0.26748,-6.13764 -2.90568,-8.357109 -3.68259,-3.098167 -11.97948,-2.608053 -13.75084,4.12713 -0.29655,1.127914 -0.38836,2.337585 -0.39247,3.510122 -0.0308,8.937058 -0.009,17.874284 -0.0224,26.811435 0,2.321271 -1.21322,3.438836 -3.49925,3.316616 -2.01051,-0.107505 -2.57678,-0.917963 -2.5808,-3.875688 z"
   id="path5"
   style="stroke-width:0.380325" />
<path
   fill="#c61e53"
   opacity="1"
   stroke="none"
   d="m 558.31797,60.459688 c -1.94264,4.160142 -5.32362,6.42918 -9.43879,7.365242 -5.36643,1.220713 -10.65976,0.950161 -15.34465,-2.500454 -0.68061,-0.501352 -1.33944,-1.032498 -2.3439,-1.809459 0,3.044578 0.0467,5.729956 -0.0112,8.413091 -0.0841,3.902436 -0.32338,7.803105 -0.33039,11.70483 0,1.616157 -0.79785,2.358573 -2.14093,2.5594 -1.46163,0.218571 -2.95925,0.08461 -3.57844,-1.62661 -0.24747,-0.684116 -0.38714,-1.447174 -0.38826,-2.174604 -0.0224,-14.065001 0.0271,-28.130312 -0.0552,-42.194874 -0.0159,-2.664886 2.33744,-4.380835 4.48763,-3.396999 1.04484,0.4781 1.75135,1.148211 1.64954,2.432796 -0.0692,0.871002 -0.0131,1.751896 -0.0131,2.95952 1.09748,-1.023682 1.89617,-1.998 2.8997,-2.66381 3.68183,-2.442893 7.6964,-3.307342 12.15093,-2.808478 3.22673,0.361359 6.1497,1.108225 8.78594,3.070438 2.90419,2.161758 4.39713,5.068848 5.07484,8.523737 0.81468,4.153933 0.45979,8.166949 -1.40375,12.146234 m -27.12762,-9.456864 c 0.0841,1.501464 -0.0542,3.056517 0.29066,4.495435 1.85915,7.750498 11.82129,9.490063 17.49382,6.284121 2.96757,-1.67717 4.50688,-4.365194 4.94002,-7.690374 0.62732,-4.815172 -1.23949,-10.764354 -7.45071,-11.89999 -2.45328,-0.448529 -5.16076,-0.514244 -7.57187,0.03646 -4.31093,0.984547 -7.07918,3.704087 -7.70192,8.774385 z"
   id="path6"
   style="stroke-width:0.380325" />
<path
   fill="#c61e53"
   opacity="1"
   stroke="none"
   d="m 363.03174,67.981003 c -5.44862,0.979648 -12.18675,0.7053 -15.85633,-4.392306 -2.76769,-3.844621 -2.28023,-10.837464 3.23972,-13.591174 6.36304,-3.174287 12.62428,-2.814022 18.8468,0.367791 1.21687,-4.516191 -1.35972,-8.411773 -6.47616,-8.649781 -4.02336,-0.187158 -7.79953,0.427952 -11.27868,2.578426 -1.37982,0.852912 -2.88885,0.891439 -3.75298,-0.668746 -0.73016,-1.318335 -0.51027,-2.907493 0.94154,-3.584886 2.65644,-1.239504 5.37383,-2.567114 8.21107,-3.145491 3.63883,-0.741781 7.369,-0.491741 11.037,0.592784 4.51792,1.335846 7.8947,5.86046 7.73763,10.558049 -0.18614,5.566956 -0.043,11.144879 -0.0439,16.718052 -3.7e-4,2.642111 -0.56898,3.463143 -2.48516,3.594946 -2.30061,0.15826 -3.27646,-0.690183 -3.65351,-3.033144 -2.07847,0.874658 -4.18976,1.763134 -6.467,2.65548 m 5.61559,-12.517615 c -2.48142,-3.398542 -11.72481,-3.506196 -14.54663,-1.440873 -2.64007,1.932276 -3.6321,5.585635 -0.0589,8.184984 3.13249,2.278602 10.21045,1.62403 12.9313,-0.253873 2.76292,-1.906885 3.23486,-3.781169 1.67395,-6.490238 z"
   id="path7"
   style="stroke-width:0.380325" />
<path
   fill="#c61e53"
   opacity="1"
   stroke="none"
   d="m 505.64169,36.414155 c 1.8253,0.25478 3.50093,0.403644 5.12364,0.78042 4.99865,1.160663 8.79361,5.428104 8.66506,10.776526 -0.13379,5.569368 -0.0299,11.144449 -0.0299,16.717033 -1.9e-4,2.667793 -0.55505,3.512085 -2.40915,3.670093 -2.33791,0.199237 -3.3291,-0.653002 -3.7441,-2.915888 -2.3353,0.887223 -4.65778,2.232605 -7.12854,2.611792 -5.13029,0.787338 -10.13005,0.609912 -14.30496,-3.428215 -3.53524,-3.419381 -3.47045,-11.706054 2.16514,-14.545598 6.41737,-3.233494 12.72394,-2.916926 19.02809,0.248619 1.24258,-4.271826 -1.17368,-8.28917 -6.23291,-8.597782 -4.00559,-0.244337 -7.79503,0.342044 -11.31728,2.434058 -1.84045,1.093117 -3.12613,0.822911 -3.95754,-0.48902 -0.74016,-1.168124 -0.21269,-3.174305 1.33177,-4.027937 2.76741,-1.52952 5.69534,-2.676366 8.91907,-2.864758 1.24221,-0.07255 2.47862,-0.244412 3.89163,-0.369343 m -8.43844,25.45518 c 4.22763,2.644776 8.60429,2.234718 12.91298,0.384068 1.76528,-0.758263 3.19737,-2.124699 3.20185,-4.364129 0,-2.162468 -1.48107,-3.089883 -3.12023,-4.019812 -2.62923,-1.491517 -5.46938,-1.100045 -8.25417,-1.07613 -2.42196,0.02085 -4.46043,0.959136 -5.77649,3.140246 -1.29559,2.147239 -0.6161,4.003387 1.03606,5.935757 z"
   id="path8"
   style="stroke-width:0.380325" />
<path
   fill="#c61e53"
   opacity="1"
   stroke="none"
   d="m 234.59791,66.200433 c -6.11707,2.851558 -12.31865,3.135609 -18.33279,0.539766 -4.86206,-2.098567 -7.89367,-5.995459 -8.76014,-11.446403 -0.78625,-4.946236 0.23541,-9.324294 3.45222,-13.170309 2.53939,-3.035976 5.96384,-4.6575 9.71505,-5.253557 4.3659,-0.693708 8.78248,-0.54073 12.9084,1.44838 4.98471,2.403094 7.82738,6.279717 8.61429,11.846972 0.61619,4.359014 -0.25738,8.286486 -2.7862,11.729828 -1.21837,1.658846 -3.11828,2.817088 -4.81083,4.305323 M 216.67115,44.575982 c -3.29975,3.086078 -3.94651,7.007866 -2.83688,11.07332 0.51158,1.87422 1.92291,3.731003 3.4052,5.062483 2.70945,2.433749 6.05518,2.79306 9.70598,2.388182 8.99452,-0.997476 11.19201,-10.388757 7.7338,-16.502697 -3.2156,-5.684912 -12.8782,-6.435387 -18.0081,-2.021288 z"
   id="path9"
   style="stroke-width:0.380325" />
<path
   fill="#c61e53"
   opacity="1"
   stroke="none"
   d="m 246.70734,42.887331 c 0,-1.264886 -0.014,-2.34182 0,-3.418221 0.0346,-2.102737 1.23819,-2.988614 3.06013,-2.98537 1.69142,0.0028 3.01141,0.783093 3.0173,3.027076 0.014,5.320076 -0.0224,10.640395 0.0122,15.960275 0.0318,4.793903 3.72951,8.344703 9.46571,7.671535 6.07631,-0.713078 9.15597,-5.874959 9.16149,-11.408147 0,-4.053413 0,-8.106845 0,-12.160258 0,-1.83112 0.91732,-2.88312 2.71318,-3.146697 1.42414,-0.209007 2.85603,0.814385 3.26001,2.379591 0.10844,0.419949 0.10592,0.875854 0.1062,1.315287 0.009,8.296836 0.0121,16.5937 -3.7e-4,24.890526 0,2.396971 -1.27989,3.540628 -3.65566,3.345037 -1.54418,-0.127128 -2.38503,-0.941774 -2.42121,-2.514833 -0.0178,-0.757047 0,-1.514833 0,-2.670738 -1.49435,1.227425 -2.64241,2.450989 -4.03112,3.26299 -6.36903,3.724112 -17.32366,2.724214 -20.06723,-6.409117 -0.36994,-1.231473 -0.57468,-2.555502 -0.59581,-3.840947 -0.072,-4.368896 -0.0271,-8.739709 -0.0271,-13.297989 z"
   id="path10"
   style="stroke-width:0.380325" />
<path
   fill="#c61e53"
   opacity="1"
   stroke="none"
   d="m 420.13563,53.534093 c -0.009,-3.175417 0.12602,-6.18574 -1.48379,-8.899764 -1.80847,-3.048906 -5.74993,-3.367353 -8.67057,-2.731049 -5.44282,1.185841 -8.67544,4.88012 -8.50295,10.942444 0.11341,3.985642 0.0281,7.977137 0.0178,11.965976 0,1.69641 -0.52962,3.110273 -2.38027,3.523547 -2.3294,0.52019 -3.69726,-0.654441 -3.69903,-3.110526 -0.009,-8.420925 0,-16.84187 0,-25.262814 1.8e-4,-2.344821 0.89863,-3.480822 2.79442,-3.539291 1.75968,-0.05422 2.90007,1.326955 2.90998,3.525389 0,0.378982 1.9e-4,0.757973 1.9e-4,1.417341 1.31148,-0.852155 2.47637,-1.592654 3.62462,-2.35819 3.23074,-2.154083 6.74719,-2.672075 10.58348,-2.284819 2.92148,0.294924 5.47423,1.117433 7.43986,3.303143 1.91525,2.129682 3.06826,4.631184 3.07125,7.562423 0.009,6.014943 0.009,12.029914 -3.7e-4,18.044857 0,1.992269 -0.82533,2.749962 -2.91681,2.72643 -1.94142,-0.02178 -2.77881,-0.811664 -2.78302,-2.66984 -0.009,-3.98884 0,-7.977707 0,-12.155257 z"
   id="path11"
   style="stroke-width:0.380325" />
<path
   fill="#c61e53"
   opacity="1"
   stroke="none"
   d="m 307.48914,45.751576 c -2.07885,-4.786022 -8.09206,-4.594489 -11.39488,-3.236701 -4.5024,1.850884 -6.49075,5.310858 -6.42204,10.112652 0.058,4.052534 0.0224,8.106592 0.009,12.159884 -0.009,1.513365 -0.40191,2.864768 -1.98985,3.454935 -2.27424,0.845227 -4.08487,-0.489983 -4.08702,-2.996421 -0.009,-8.486715 0,-16.973448 0,-25.460182 3.7e-4,-2.174959 0.92873,-3.292112 2.78171,-3.362276 1.70321,-0.06451 2.90671,1.303348 2.92195,3.323655 0,0.493358 3.7e-4,0.986753 3.7e-4,1.85094 1.16358,-0.885035 2.06894,-1.578032 2.97879,-2.265055 4.59224,-3.467322 12.91587,-3.755366 17.13836,-0.650216 2.89213,2.12684 4.47744,5.037464 4.56252,8.549905 0.14874,6.139771 0.0458,12.285759 0.0393,18.429121 0,1.943177 -0.87704,2.730562 -2.94701,2.697354 -1.93375,-0.03104 -2.74992,-0.819218 -2.75282,-2.701571 -0.009,-4.686679 0.0701,-9.375078 -0.0383,-14.059261 -0.0439,-1.906315 -0.48194,-3.803514 -0.79542,-5.846763 z"
   id="path12"
   style="stroke-width:0.380325" />
<path
   fill="#c61e53"
   opacity="1"
   stroke="none"
   d="m 319.95729,37.179121 c 1.35935,-0.0047 2.55163,-0.0047 3.95604,-0.0047 0,-3.332415 -0.009,-6.541461 0,-9.750479 0.009,-2.377281 0.71969,-3.153223 2.89876,-3.181953 2.21703,-0.02926 3.15128,0.860336 3.17606,3.152737 0.0346,3.164404 0.009,6.329435 0.009,9.778891 2.61829,0 5.19367,-0.116694 7.74755,0.06554 0.85254,0.06086 2.18216,0.751756 2.34502,1.394857 0.2269,0.896385 -0.30918,2.084376 -0.7856,3.010285 -0.18166,0.353011 -1.0988,0.441574 -1.68451,0.452858 -2.46095,0.0474 -4.9233,0.02001 -7.4968,0.02001 -0.0477,0.515253 -0.11986,0.935418 -0.12042,1.355666 -0.009,5.384668 -0.015,10.769384 0,16.154015 0.009,2.72758 2.21366,4.361501 4.76857,3.404917 1.23912,-0.463908 2.39756,-1.225704 3.47672,-2.011575 1.11524,-0.812178 2.1312,-1.630845 3.4754,-0.522405 1.51015,1.245282 1.55512,2.107412 0.45886,3.863824 -2.15851,3.45816 -7.54692,4.589571 -11.37142,3.845061 -4.69705,-0.91441 -7.05702,-4.893499 -6.93848,-8.974912 0.16333,-5.623518 0.0411,-11.255337 0.0411,-17.114572 -1.09328,0 -2.09044,-0.07199 -3.07284,0.0172 -1.41002,0.127988 -2.5937,-0.241037 -2.96346,-1.663081 -0.41369,-1.590242 0.16539,-2.837337 2.08026,-3.29185 z"
   id="path13"
   style="stroke-width:0.380325" />
<path
   fill="#c61e53"
   opacity="1"
   stroke="none"
   d="m 42.37282,37.797485 c -4.447474,6.794325 -8.785379,13.490961 -13.217652,20.124539 -0.700953,1.049083 -1.734479,1.944244 -2.77397,2.687033 -4.530747,3.237533 -9.114736,6.400834 -13.696089,9.56694 -0.5746,0.3971 -1.248348,0.650767 -1.876154,0.970878 -0.186298,-0.170405 -0.372587,-0.340809 -0.558876,-0.511214 9.136491,-14.593503 18.272992,-29.186996 27.572427,-44.040757 0.684882,0.849173 1.268393,1.463516 1.724925,2.160973 1.01451,1.549882 1.83499,3.244684 2.977779,4.687801 1.219515,1.540019 1.103559,2.843564 -0.15239,4.353807 z"
   id="path14"
   style="stroke-width:0.380325" />
<path
   fill="#c61e53"
   opacity="1"
   stroke="none"
   d="m 388.1883,51.624984 c 0,4.811806 -0.0626,9.434753 0.0327,14.054409 0.0355,1.699766 -0.7999,2.42268 -2.24218,2.661062 -2.09044,0.345521 -3.10789,-0.276302 -3.487,-2.080702 -0.20259,-0.964213 -0.36835,-1.957688 -0.37228,-2.938663 -0.0299,-7.597098 -0.0449,-15.194542 0,-22.791454 0.0112,-1.75831 0.28281,-3.431347 2.54378,-3.900537 1.84849,-0.383601 3.5058,0.728626 3.51468,2.650198 0.0187,4.051767 0.009,8.103675 0.009,12.345687 z"
   id="path15"
   style="stroke-width:0.380325" />
<path
   fill="#c61e53"
   opacity="1"
   stroke="none"
   d="m 574.86379,31.0889 c -2.0164,-0.09115 -2.52461,1.134411 -2.58024,2.636642 -0.0729,1.955079 -0.0178,3.914869 -0.0178,5.948256 -1.33813,0.367286 -1.95208,0.0075 -1.91244,-1.386742 0.0468,-1.645542 0,-3.293589 0.015,-4.940234 0.0159,-1.381095 -0.76054,-2.121118 -2.01378,-2.229941 -1.44751,-0.125679 -2.16888,0.708573 -2.17281,2.151072 0,1.646851 0.0936,3.302424 -0.0552,4.935859 -0.0514,0.569534 -0.70473,1.084441 -1.08309,1.624292 -0.38134,-0.536915 -1.08542,-1.07283 -1.0871,-1.610895 -0.009,-2.122398 0.0961,-4.260326 0.37611,-6.363484 0.21409,-1.608379 2.90278,-3.106356 4.61281,-2.609745 1.75295,0.509046 3.33387,0.706871 5.18731,0.04618 2.17954,-0.776933 4.40246,1.393669 4.57813,4.174959 0.10359,1.640335 -0.009,3.293019 0.0271,4.939253 0.0271,1.340156 -0.64405,1.602405 -1.90888,1.282762 0,-1.851894 0.0711,-3.684341 -0.0243,-5.508123 -0.0664,-1.27675 -0.11088,-2.687818 -1.94151,-3.090098 z"
   id="path16"
   style="stroke-width:0.380325" />
<path
   fill="#c61e53"
   opacity="1"
   stroke="none"
   d="m 386.9388,31.080083 c -1.9417,1.070782 -4.99733,-0.483027 -5.48526,-1.958369 -0.68089,-2.0589 0.11957,-4.099177 2.07698,-4.977434 1.94507,-0.872705 4.9678,0.06909 5.7303,1.785366 0.80224,1.805756 -0.14294,4.045279 -2.32202,5.150437 z"
   id="path17"
   style="stroke-width:0.380325" />
<path
   fill="#c61e53"
   opacity="1"
   stroke="none"
   d="m 554.93399,29.567279 c 2.44702,-9.35e-4 4.7208,-0.05535 6.98859,0.03581 0.59609,0.02393 1.17415,0.49864 1.76061,0.766349 -0.072,0.211644 -0.14323,0.423297 -0.21484,0.63494 -1.16592,0 -2.33193,0 -3.75336,0 0,1.831812 0,3.509066 0,5.186329 0,0.504782 0.13734,1.061928 -0.0309,1.502651 -0.28608,0.750138 -0.76409,1.427074 -1.16152,2.134767 -0.36321,-0.741836 -0.95491,-1.458224 -1.04102,-2.23094 -0.16678,-1.495771 -0.0486,-3.023272 -0.0486,-4.537628 0,-0.564102 0,-1.128204 0,-1.878024 -1.27764,-0.05881 -2.50059,-0.115105 -3.72344,-0.171405 -0.0879,-0.147117 -0.17679,-0.294242 -0.26514,-0.441359 0.438,-0.333508 0.87601,-0.667016 1.48949,-1.001459 z"
   id="path18"
   style="stroke-width:0.380325" />
<path
   fill="#ffffff"
   opacity="1"
   stroke="none"
   d="m 531.19044,50.84002 c 0.62255,-4.907494 3.3908,-7.627034 7.70173,-8.61158 2.41112,-0.550668 5.11869,-0.484953 7.57188,-0.03646 6.21131,1.135637 8.07803,7.084818 7.45071,11.899991 -0.43314,3.325179 -1.97246,6.013204 -4.94003,7.690373 -5.67243,3.205942 -15.63466,1.466377 -17.49372,-6.28412 -0.34526,-1.438919 -0.20624,-2.993971 -0.29057,-4.658239 z"
   id="path19"
   style="stroke-width:0.380325" />
<path
   fill="#ffffff"
   opacity="1"
   stroke="none"
   d="m 368.74372,55.573903 c 1.46452,2.598554 0.99258,4.472838 -1.77034,6.379723 -2.72084,1.877903 -9.79881,2.532475 -12.9313,0.253873 -3.57348,-2.599349 -2.58145,-6.252708 0.0589,-8.184984 2.82182,-2.065323 12.06521,-1.957669 14.64302,1.551388 z"
   id="path20"
   style="stroke-width:0.380325" />
<path
   fill="#ffffff"
   opacity="1"
   stroke="none"
   d="m 497.08517,61.78424 c -1.53408,-1.847275 -2.21357,-3.703423 -0.91798,-5.850662 1.31606,-2.18111 3.35453,-3.119444 5.77649,-3.140246 2.7847,-0.02393 5.62494,-0.415387 8.25417,1.07613 1.63916,0.929929 3.12444,1.857344 3.12014,4.019812 0,2.23943 -1.43648,3.605866 -3.20186,4.364129 -4.30859,1.85065 -8.68525,2.260708 -13.03096,-0.469163 z"
   id="path21"
   style="stroke-width:0.380325" />
<path
   fill="#ffffff"
   opacity="1"
   stroke="none"
   d="m 216.77127,44.480369 c 5.02978,-4.318486 14.69238,-3.568011 17.90798,2.116901 3.45821,6.11394 1.26072,15.505221 -7.7338,16.502697 -3.6508,0.404878 -6.99653,0.04553 -9.70598,-2.388182 -1.48229,-1.33148 -2.89362,-3.188263 -3.4052,-5.062483 -1.10963,-4.065454 -0.46287,-7.987242 2.937,-11.168933 z"
   id="path22"
   style="stroke-width:0.380325" />
</svg>
