<?xml version="1.0" standalone="no"?>
<!DOCTYPE svg PUBLIC "-//W3C//DTD SVG 20010904//EN"
 "http://www.w3.org/TR/2001/REC-SVG-20010904/DTD/svg10.dtd">
<svg version="1.0" xmlns="http://www.w3.org/2000/svg"
 width="805.000000pt" height="145.000000pt" viewBox="0 0 805.000000 145.000000"
 preserveAspectRatio="xMidYMid meet">

<g transform="translate(0.000000,145.000000) scale(0.100000,-0.100000)"
fill="#ffffff" stroke="none">
<path d="M585 1415 c-251 -56 -444 -231 -522 -472 -33 -103 -41 -258 -19 -362
17 -81 23 -93 36 -71 5 8 90 125 190 259 l181 243 47 -63 c46 -62 46 -62 43
-134 -2 -50 2 -82 12 -101 32 -62 107 -111 205 -134 70 -16 76 -8 9 13 -102
32 -159 107 -143 190 4 24 46 85 131 193 69 88 129 160 133 162 5 1 119 -137
253 -308 134 -170 247 -310 251 -310 7 0 23 75 33 156 8 67 -10 202 -40 287
-35 102 -81 172 -170 263 -66 66 -97 89 -175 128 -146 72 -309 94 -455 61z"/>
<path d="M848 563 c7 -3 16 -2 19 1 4 3 -2 6 -13 5 -11 0 -14 -3 -6 -6z"/>
<path d="M963 541 c114 -30 155 -78 102 -119 -89 -71 -330 -114 -702 -128
l-182 -7 25 -32 c28 -37 119 -110 184 -148 77 -44 196 -78 295 -84 126 -8 234
15 355 74 78 38 109 60 175 127 95 97 143 176 127 212 -21 45 -122 79 -319
109 -131 19 -145 18 -60 -4z"/>
</g>

  <style>
    .small { font: italic 13px sans-serif; }
    .heavy { font: bold 100px sans-serif; fill:#ffffff; }

    /* Note that the color of the text is set with the    *
     * fill property, the color property is for HTML only */
    .pink { font: bold 100px sans-serif; fill: magenta; }	
  </style>

   <text x="160" y="100" class="heavy">Mountain</text>
   <text x="605" y="100" class="heavy pink">Map</text>
</svg>
